# xmcd CD database file
#
# Track frame offsets:
#	150
#	15116
#	32236
#	45603
#	66402
#	82746
#	104630
#	120325
#	142802
#	159100
#	172600
#	192648
#	209397
#	231934
#	261522
#
# Disc length: 3520 seconds
#
# Revision: 0
# Processed by: cddbd v1.5.2PL0 Copyright (c) Steve Scherf et al.
# Submitted via: CDex 1.70beta2
#
DISCID=be0dbe0f
DTITLE=Brooks and Dunn - The Very Best Of 
DYEAR=2008
DGENRE=Country
TTITLE0=Boot Scootin' Boogie
TTITLE1=Lost And Found
TTITLE2=Hard Workin' Man
TTITLE3=Best Of My Love
TTITLE4=That Ain't No Way To Go
TTITLE5=You're Gonna Miss Me (When I'm Gone)
TTITLE6=My Maria
TTITLE7=Against The Wind
TTITLE8=Ain't Nothing 'bout You
TTITLE9=My Heart Is Lost To You
TTITLE10=I Ain't Living Long Like This
TTITLE11=You Can't Take The Honky Tonk Out Of The Girl
TTITLE12=Only In America (Live At Farm Aid -- 2004)
TTITLE13=The Fightin' Side Of Me
TTITLE14=Datatrack 15
EXTD=YEAR: 2008
EXTT0=
EXTT1=
EXTT2=
EXTT3=
EXTT4=
EXTT5=
EXTT6=
EXTT7=
EXTT8=
EXTT9=
EXTT10=
EXTT11=
EXTT12=
EXTT13=
EXTT14=
PLAYORDER=
